<svg xmlns="http://www.w3.org/2000/svg" xmlns:svgjs="http://svgjs.com/svgjs" xmlns:xlink="http://www.w3.org/1999/xlink" width="288" height="288"><svg xmlns="http://www.w3.org/2000/svg" width="288" height="288" viewBox="0 0 1402 702"><defs><linearGradient id="a" x1=".5" x2=".5" y2="1" gradientUnits="objectBoundingBox"><stop class="stopColorfad961 svgShape" offset="0" stop-color="#adadad"/><stop class="stopColorf76b1c svgShape" offset="1" stop-color="#898989"/></linearGradient></defs><g data-name="Contact 3 Copy 3"><path fill="url(#a)" d="M1221.02,702a3,3,0,1,1,0-6,3,3,0,0,1,2.98,2.974,3.026,3.026,0,0,1-.88,2.137A2.936,2.936,0,0,1,1221.02,702Zm43.957-1a3.268,3.268,0,0,1-2.1-.727,2.319,2.319,0,0,1-.876-1.788,3.047,3.047,0,1,1,2.977,2.516Zm129.535-1c-.862,0-1.512-.436-1.512-1.014,0-.553.664-.986,1.512-.986s1.488.433,1.488.986C1396,699.555,1395.346,700,1394.512,700Zm-43.533,0a1,1,0,0,1-.979-1.021,1,1,0,0,1,2,0A1.01,1.01,0,0,1,1350.979,700Zm-43.49,0a1.5,1.5,0,1,1,1.51-1.516A1.487,1.487,0,0,1,1307.489,700ZM140.008,700A1.032,1.032,0,0,1,139,698.972,1,1,0,1,1,140.008,700Zm-43,0A1,1,0,0,1,96,699.012,1.062,1.062,0,0,1,97.006,698,1.031,1.031,0,0,1,98,699.012.981.981,0,0,1,97.006,700ZM54.02,700A.984.984,0,0,1,53,698.985.97.97,0,0,1,54.02,698a1,1,0,0,1,0,2ZM8.986,700a1,1,0,0,1,0-2,.978.978,0,0,1,1.014.985A.992.992,0,0,1,8.986,700Zm996.035-.785a.223.223,0,0,1-.23-.246c0-.128.116-.185.23-.185a.168.168,0,0,1,.189.185C1005.21,699.133,1005.146,699.215,1005.021,699.215Zm-43.034,0a.224.224,0,0,1-.231-.246c0-.128.116-.185.231-.185s.258.049.258.185A.23.23,0,0,1,961.987,699.215Zm-42.988,0a.224.224,0,0,1-.231-.246c0-.128.116-.185.231-.185s.233.057.233.185A.225.225,0,0,1,919,699.215Zm-346.017,0c-.149,0-.21-.071-.21-.246,0-.13.063-.185.21-.185s.246.064.246.185A.218.218,0,0,1,572.982,699.215Zm-43.981,0a.228.228,0,0,1-.246-.246c0-.137.132-.185.246-.185s.243.058.243.185A.232.232,0,0,1,529,699.215Zm-43,0a.217.217,0,0,1-.243-.246c0-.121.084-.185.243-.185.114,0,.247.049.247.185A.226.226,0,0,1,486,699.215Zm-43.956,0c-.176,0-.282-.092-.282-.246,0-.137.146-.185.282-.185a.174.174,0,0,1,.2.185C442.239,699.128,442.169,699.215,442.042,699.215ZM1178.5,699a.5.5,0,1,1,.5-.526A.508.508,0,0,1,1178.5,699Zm-43,0a.5.5,0,1,1,0-1,.5.5,0,1,1,0,1Zm-43.081,0c-.27,0-.419-.193-.419-.544a.407.407,0,0,1,.419-.456c.342,0,.581.188.581.456A.517.517,0,0,1,1092.419,699Zm-44.9,0a.5.5,0,0,1-.517-.544.486.486,0,0,1,.517-.456.424.424,0,0,1,.483.456C1048,698.823,1047.841,699,1047.516,699Zm-648.01,0a.5.5,0,0,1-.507-.544.5.5,0,0,1,1,0A.5.5,0,0,1,399.507,699Zm-42.968,0a.488.488,0,0,1-.538-.544c0-.281.206-.456.538-.456a.439.439,0,0,1,.462.456C357,698.792,356.823,699,356.539,699Zm-43.033,0a.5.5,0,1,1,0-1,.474.474,0,0,1,.494.474A.483.483,0,0,1,313.506,699Zm-44,0a.47.47,0,0,1-.506-.526.46.46,0,0,1,.506-.474.5.5,0,0,1,.494.474A.5.5,0,0,1,269.506,699ZM225.5,699a.5.5,0,1,1,0-1,.474.474,0,0,1,.5.479A.483.483,0,0,1,225.5,699Zm-43.008,0a.5.5,0,0,1,0-1,.5.5,0,1,1,0,1Zm995.52-39a4,4,0,1,1,0-8A3.984,3.984,0,0,1,1182,655.97a4.024,4.024,0,0,1-1.169,2.839A3.934,3.934,0,0,1,1178.012,660Zm-43,0a3.976,3.976,0,1,1,2.819-1.157A4,4,0,0,1,1135.01,660Zm129.947-1a3.033,3.033,0,0,1-2.957-3.028,3,3,0,0,1,6,0A3.039,3.039,0,0,1,1264.957,659Zm-43.436,0a3.5,3.5,0,1,1,0-7,3.448,3.448,0,0,1,2.469,1.021A3.494,3.494,0,0,1,1225,655.5,3.453,3.453,0,0,1,1221.522,659ZM1395,657a1,1,0,0,1,0-2,.987.987,0,0,1,1,.995A1,1,0,0,1,1395,657Zm-44.023,0a1,1,0,0,1-.977-1.013.971.971,0,0,1,.977-.987.983.983,0,0,1,1.023.987A1.007,1.007,0,0,1,1350.977,657Zm-43.487,0a1.5,1.5,0,1,1,1.51-1.506A1.518,1.518,0,0,1,1307.489,657ZM140.008,657A1,1,0,0,1,139,655.991a1.04,1.04,0,0,1,1.008-.991,1.019,1.019,0,0,1,.993.991A.979.979,0,0,1,140.008,657ZM97,657a.972.972,0,0,1-1-1.009A1.009,1.009,0,0,1,97,655a1.022,1.022,0,0,1,1,.991A.983.983,0,0,1,97,657Zm-42.994,0A1,1,0,0,1,53,655.987a1,1,0,0,1,2,0A1,1,0,0,1,54.006,657ZM8.995,657A1.017,1.017,0,0,1,8,655.987.992.992,0,0,1,8.995,655a.974.974,0,0,1,1.005.987A1,1,0,0,1,8.995,657Zm1082.017-.756a.245.245,0,1,1,0-.489.245.245,0,0,1,0,.489Zm-43,0a.245.245,0,1,1,.234-.246A.264.264,0,0,1,1048.01,656.244Zm-42.989,0a.245.245,0,0,1,0-.489c.117,0,.189.126.189.243S1005.138,656.244,1005.021,656.244Zm-606.022,0a.244.244,0,0,1,0-.489.244.244,0,1,1,0,.489Zm-42.971,0a.245.245,0,1,1,0-.489.247.247,0,0,1,0,.489Zm519.937-.129a.116.116,0,1,1,0-.231c.12,0,.185.06.185.115S876.086,656.115,875.966,656.115ZM313.5,656a.5.5,0,0,1,0-1,.5.5,0,1,1,0,1Zm-43.99,0a.5.5,0,1,1,0-1,.5.5,0,0,1,0,1ZM225.5,656a.5.5,0,1,1,0-1,.5.5,0,0,1,0,1Zm-43,0a.472.472,0,0,1-.5-.5.5.5,0,0,1,.5-.5.515.515,0,0,1,.5.5A.486.486,0,0,1,182.5,656Zm908.969-38a5.515,5.515,0,0,1-3.856-9.408,5.508,5.508,0,0,1,7.785,7.8A5.517,5.517,0,0,1,1091.464,618Zm129.548-1a4,4,0,0,1-2.85-1.166,4.009,4.009,0,0,1,5.671-5.667,4.007,4.007,0,0,1-2.821,6.833Zm-42.534,0a4.48,4.48,0,1,1,4.521-4.472,4.413,4.413,0,0,1-1.333,3.152A4.51,4.51,0,0,1,1178.478,617Zm-42.978,0a4.5,4.5,0,1,1,4.5-4.477A4.493,4.493,0,0,1,1135.5,617Zm128.942-1a3.5,3.5,0,0,1,0-7,3.545,3.545,0,0,1,3.558,3.523,3.414,3.414,0,0,1-1.042,2.445A3.567,3.567,0,0,1,1264.443,616Zm-215.953,0a3.5,3.5,0,0,1,0-7,3.566,3.566,0,0,1,3.511,3.527,3.422,3.422,0,0,1-1.042,2.458A3.51,3.51,0,0,1,1048.489,616Zm345.986-1a2.421,2.421,0,0,1-2.475-2.475,2.474,2.474,0,0,1,2.475-2.525,2.528,2.528,0,0,1,2.525,2.525A2.474,2.474,0,0,1,1394.475,615Zm-86.488,0a2,2,0,1,1,2.013-1.968A1.98,1.98,0,0,1,1307.987,615ZM54.006,614A1.033,1.033,0,0,1,53,613a1,1,0,0,1,2,0A1.039,1.039,0,0,1,54.006,614ZM8.995,614A1.053,1.053,0,0,1,8,613a1,1,0,0,1,2,0A1.032,1.032,0,0,1,8.995,614Zm910-.761a.253.253,0,0,1-.231-.243.232.232,0,1,1,.464,0A.254.254,0,0,1,919,613.238Zm-562.971,0a.239.239,0,0,1-.266-.243c0-.171.072-.234.266-.234.139,0,.21.079.21.234A.231.231,0,0,1,356.028,613.238Zm-43.024,0a.263.263,0,0,1-.243-.243.223.223,0,0,1,.243-.234.215.215,0,0,1,.234.234A.251.251,0,0,1,313,613.238Zm562.961-.117a.119.119,0,0,1-.117-.126.118.118,0,0,1,.117-.117c.12,0,.185.06.185.117C876.151,613.07,876.075,613.121,875.966,613.121ZM1350.484,613a.468.468,0,0,1-.484-.483.48.48,0,0,1,.484-.517.5.5,0,1,1,0,1ZM269.508,613a.508.508,0,0,1-.508-.507.465.465,0,0,1,.508-.493.483.483,0,0,1,.492.493A.541.541,0,0,1,269.508,613Zm-44.024,0a.515.515,0,0,1-.483-.507.463.463,0,0,1,.483-.493c.343,0,.517.166.517.493A.49.49,0,0,1,225.483,613Zm-42.989,0a.484.484,0,0,1-.494-.473.49.49,0,0,1,.494-.527.5.5,0,1,1,0,1ZM139.5,613a.483.483,0,0,1-.5-.474.5.5,0,1,1,1,0A.483.483,0,0,1,139.5,613Zm-43,0a.5.5,0,1,1,0-1,.49.49,0,0,1,.5.517A.479.479,0,0,1,96.5,613Zm994.949-35a8.366,8.366,0,0,1-5.981-2.493,8.5,8.5,0,0,1,12.034-12.018,8.486,8.486,0,0,1,0,12.018A8.506,8.506,0,0,1,1091.453,578Zm43.081-1a7.535,7.535,0,0,1-7.535-7.518,7.4,7.4,0,0,1,2.211-5.3,7.522,7.522,0,0,1,5.324-2.178,7.435,7.435,0,0,1,7.465,7.483,7.5,7.5,0,0,1-2.177,5.314A7.39,7.39,0,0,1,1134.535,577Zm216.455-1a6.971,6.971,0,1,1,4.961-2.033A6.953,6.953,0,0,1,1350.989,576Zm-302.977-1a6,6,0,1,1,0-12,6.06,6.06,0,0,1,5.988,6.01A6,6,0,0,1,1048.012,575ZM1005,575a6,6,0,1,1,4.24-10.239,5.92,5.92,0,0,1,1.761,4.214A6.02,6.02,0,0,1,1005,575Zm389.5-1a5.422,5.422,0,1,1,3.912-1.586A5.484,5.484,0,0,1,1394.5,574Zm-216.986,0a5.493,5.493,0,0,1-3.872-1.6,5.438,5.438,0,0,1,0-7.787,5.491,5.491,0,1,1,3.872,9.39Zm43.475-1a3.951,3.951,0,0,1-2.832-1.173,4.015,4.015,0,0,1-1.157-2.845,3.968,3.968,0,0,1,3.989-3.983,4,4,0,1,1,0,8Zm43.5-1a3.51,3.51,0,0,1-3.488-3.523,3.5,3.5,0,0,1,7,0A3.522,3.522,0,0,1,1264.488,572Zm43-1a2.508,2.508,0,0,1-2.489-2.521,2.5,2.5,0,0,1,5,0A2.519,2.519,0,0,1,1307.489,571Zm-346.036,0a2.5,2.5,0,0,1,0-5,2.5,2.5,0,1,1,0,5Zm-42.418,0A2.008,2.008,0,0,1,917,568.975,2,2,0,1,1,919.035,571Zm-43.56,0A2.5,2.5,0,0,1,873,568.481,2.452,2.452,0,0,1,875.475,566,2.477,2.477,0,0,1,878,568.481,2.525,2.525,0,0,1,875.475,571Zm-42.957-2a.537.537,0,0,1-.518-.485.552.552,0,0,1,.518-.515.526.526,0,0,1,.483.515A.5.5,0,0,1,832.518,569Zm-607.035,0a.5.5,0,0,1-.483-.485.52.52,0,0,1,.483-.515.494.494,0,0,1,.517.515A.474.474,0,0,1,225.483,569Zm-42.991,0a.522.522,0,0,1-.492-.485.538.538,0,0,1,.492-.515.546.546,0,0,1,.508.515A.523.523,0,0,1,182.492,569ZM139.5,569a.508.508,0,0,1-.5-.489.52.52,0,0,1,.5-.511.526.526,0,0,1,.5.511A.514.514,0,0,1,139.5,569Zm-43,0a.479.479,0,0,1-.5-.491.525.525,0,0,1,.5-.509.532.532,0,0,1,.5.509A.485.485,0,0,1,96.5,569Zm-42.991,0a.49.49,0,0,1-.509-.492.5.5,0,1,1,1,0A.5.5,0,0,1,53.509,569ZM9.488,569A.479.479,0,0,1,9,568.507.505.505,0,0,1,9.488,568a.511.511,0,0,1,.512.507A.486.486,0,0,1,9.488,569ZM313,568.238a.223.223,0,0,1-.243-.234.263.263,0,0,1,.243-.243.251.251,0,0,1,.234.243A.215.215,0,0,1,313,568.238Zm-44,0c-.169,0-.245-.072-.245-.234a.239.239,0,0,1,.245-.243.254.254,0,0,1,.232.243A.214.214,0,0,1,269.007,568.238ZM1265,538a12,12,0,1,1,8.5-3.532A12.017,12.017,0,0,1,1265,538Zm43.487-2A10.5,10.5,0,1,1,1319,525.536,10.437,10.437,0,0,1,1308.488,536Zm-260.465,0a9.987,9.987,0,0,1-7.087-2.915,9.881,9.881,0,0,1-2.935-7.056,10,10,0,1,1,20,0,9.963,9.963,0,0,1-9.978,9.971Zm-43.012,0a10,10,0,1,1,9.99-9.971,9.969,9.969,0,0,1-9.99,9.971Zm86.443-1a9.456,9.456,0,0,1-9.453-9.47,9.51,9.51,0,0,1,2.765-6.744,9.357,9.357,0,0,1,6.688-2.786,9.512,9.512,0,0,1,9.546,9.53,9.377,9.377,0,0,1-2.786,6.7A9.523,9.523,0,0,1,1091.453,535Zm259.523-1a8,8,0,1,1,0-16,8,8,0,0,1,0,16Zm-216.465,0a8.474,8.474,0,1,1,6.006-2.481A8.467,8.467,0,0,1,1134.511,534ZM918,533a7.05,7.05,0,1,1,4.931-2.061A6.948,6.948,0,0,1,918,533Zm476.475-1a6.5,6.5,0,0,1,0-13,6.5,6.5,0,1,1,0,13Zm-432.488,0A6.064,6.064,0,0,1,956,525.994,6,6,0,1,1,961.988,532Zm215.5-1a5.515,5.515,0,0,1-5.489-5.5,5.485,5.485,0,1,1,5.489,5.5Zm44-1a4.485,4.485,0,1,1,4.512-4.478A4.468,4.468,0,0,1,1221.488,530Zm-346.022-1A3.43,3.43,0,0,1,872,525.533a3.555,3.555,0,0,1,1-2.489A3.4,3.4,0,0,1,875.466,522,3.52,3.52,0,0,1,879,525.533,3.464,3.464,0,0,1,875.466,529Zm-86.978,0a3.486,3.486,0,0,1-2.457-5.961,3.449,3.449,0,0,1,4.935,0,3.511,3.511,0,0,1,1.034,2.49,3.426,3.426,0,0,1-1.034,2.443A3.5,3.5,0,0,1,788.488,529Zm43.534-1a3,3,0,1,1,0-6,3,3,0,0,1,0,6Zm-649.53-2a.5.5,0,1,1,.508-.5A.529.529,0,0,1,182.492,526ZM139.5,526a.5.5,0,1,1,0-1,.5.5,0,1,1,0,1Zm-42.994,0a.545.545,0,0,1-.506-.5.537.537,0,0,1,.506-.5.5.5,0,0,1,0,1Zm-43,0a.517.517,0,0,1-.509-.5.489.489,0,0,1,.509-.5.5.5,0,0,1,.491.5A.529.529,0,0,1,53.509,526ZM9.488,526A.507.507,0,0,1,9,525.5a.479.479,0,0,1,.488-.5.485.485,0,0,1,.512.5A.512.512,0,0,1,9.488,526Zm259.519-.755a.244.244,0,1,1,0-.489.245.245,0,0,1,0,.489Zm-43.03,0a.24.24,0,0,1-.221-.243.244.244,0,0,1,.221-.246.245.245,0,1,1,0,.489ZM1221.034,497a13.943,13.943,0,1,1,9.887-4.088A13.959,13.959,0,0,1,1221.034,497Zm43.466-1a13.545,13.545,0,0,1-13.5-13.559,13.5,13.5,0,0,1,27,0A13.545,13.545,0,0,1,1264.5,496Zm-86.488-1a12,12,0,0,1,0-24,12,12,0,1,1,0,24Zm130.452-1a11.516,11.516,0,0,1-8.115-19.636A11.509,11.509,0,0,1,1320,482.476,11.543,11.543,0,0,1,1308.464,494Zm-260.442,0A11.038,11.038,0,0,1,1037,482.971a11,11,0,0,1,22,0A11.016,11.016,0,0,1,1048.022,494Zm-43.035,0a11,11,0,0,1,0-22,11,11,0,1,1,0,22Zm86.477-1a10.5,10.5,0,1,1,7.469-17.934,10.374,10.374,0,0,1,3.066,7.4A10.521,10.521,0,0,1,1091.464,493Zm-128.976,0a10.5,10.5,0,1,1,7.438-3.076A10.4,10.4,0,0,1,962.488,493Zm-43.943,0a10.491,10.491,0,1,1,7.389-3.08A10.349,10.349,0,0,1,918.545,493ZM1351,492a9.023,9.023,0,0,1-9-9.026,9,9,0,1,1,18,0,9,9,0,0,1-9,9.026Zm-215.964,0A9.044,9.044,0,0,1,1126,482.97a8.874,8.874,0,0,1,2.653-6.353,9.019,9.019,0,0,1,6.383-2.617A8.936,8.936,0,0,1,1144,482.97a9.011,9.011,0,0,1-2.618,6.384A8.871,8.871,0,0,1,1135.036,492Zm258.975-2a6.936,6.936,0,0,1-4.937-2.074,7.03,7.03,0,0,1-2.074-4.99,6.839,6.839,0,0,1,2.074-4.9,7.031,7.031,0,0,1,9.888,0,6.869,6.869,0,0,1,2.037,4.9,7.064,7.064,0,0,1-2.037,4.991A6.9,6.9,0,0,1,1394.011,490Zm-518.547,0a7.385,7.385,0,0,1-5.286-2.2,7.508,7.508,0,0,1,10.635-10.6A7.4,7.4,0,0,1,883,482.47,7.494,7.494,0,0,1,875.464,490ZM831.5,490a7.528,7.528,0,1,1,7.5-7.537,7.514,7.514,0,0,1-2.188,5.335A7.434,7.434,0,0,1,831.5,490Zm-42.514-2a6.241,6.241,0,0,1-4.229-1.595A5.247,5.247,0,0,1,783,482.5a6.023,6.023,0,0,1,12,0,5.239,5.239,0,0,1-1.761,3.906A6.284,6.284,0,0,1,788.987,488Zm-44.009-2a3.929,3.929,0,0,1-2.822-1.176A4.045,4.045,0,0,1,741,481.965a4,4,0,0,1,8,0A4,4,0,0,1,744.978,486Zm-42.438,0a3.538,3.538,0,0,1-3.54-3.529,3.416,3.416,0,0,1,1.036-2.464,3.559,3.559,0,0,1,2.5-1.007A3.429,3.429,0,0,1,706,482.471,3.5,3.5,0,0,1,702.54,486Zm-563.023-3a.49.49,0,0,1-.517-.547.472.472,0,0,1,.517-.453.444.444,0,0,1,.483.453C140,482.811,139.833,483,139.517,483Zm-43.011,0a.56.56,0,0,1-.506-.568.482.482,0,0,1,.506-.432.456.456,0,0,1,.494.432A.529.529,0,0,1,96.506,483ZM53.5,483a.522.522,0,0,1-.5-.554.462.462,0,0,1,.5-.446.5.5,0,0,1,.5.446A.56.56,0,0,1,53.5,483Zm-44.01,0A.537.537,0,0,1,9,482.446.473.473,0,0,1,9.485,482a.468.468,0,0,1,.515.446A.52.52,0,0,1,9.485,483Zm216.491-.756c-.149,0-.221-.081-.221-.246a.243.243,0,0,1,.221-.243.266.266,0,0,1,.268.243C226.245,482.164,226.157,482.244,225.976,482.244Zm-42.982,0a.222.222,0,0,1-.233-.246.274.274,0,0,1,.233-.243.264.264,0,0,1,.245.243A.22.22,0,0,1,182.994,482.244ZM1264.489,455A15.5,15.5,0,1,1,1280,439.513,15.506,15.506,0,0,1,1264.489,455Zm-42.967,0a15.37,15.37,0,0,1-6.027-1.221,15.546,15.546,0,0,1-4.936-3.325,15.362,15.362,0,0,1-4.56-10.943A15.535,15.535,0,0,1,1221.522,424a15.5,15.5,0,0,1,0,31Zm-86.022,0a15.5,15.5,0,1,1,10.958-4.536A15.406,15.406,0,0,1,1135.5,455Zm-44.046-2A14.508,14.508,0,0,1,1077,438.512,14.5,14.5,0,1,1,1091.454,453Zm217.022-2a12.487,12.487,0,1,1,8.861-3.651A12.393,12.393,0,0,1,1308.476,451ZM1177.5,451a12.489,12.489,0,1,1,8.843-3.658A12.424,12.424,0,0,1,1177.5,451Zm-129.477,0a12.016,12.016,0,1,1,8.459-3.52A11.955,11.955,0,0,1,1048.023,451ZM1005,451a11.95,11.95,0,1,1,8.5-3.5A11.932,11.932,0,0,1,1005,451Zm-43.047-1a11,11,0,0,1,0-22,11,11,0,1,1,0,22Zm-43.942,0a10.959,10.959,0,1,1,7.781-3.212A10.955,10.955,0,0,1,918.011,450Zm-42.547-1a10.361,10.361,0,0,1-7.393-3.094A10.49,10.49,0,1,1,875.464,449Zm-43.475,0a9.977,9.977,0,1,1,7.1-2.929A9.923,9.923,0,0,1,831.989,449Zm519.465-1a9.559,9.559,0,1,1,6.744-2.8A9.482,9.482,0,0,1,1351.454,448Zm-562.479-1a7.987,7.987,0,1,1,5.691-2.344A7.99,7.99,0,0,1,788.975,447Zm605.5-1a7.5,7.5,0,1,1,7.524-7.494A7.518,7.518,0,0,1,1394.476,446Zm-648.465,0a7.028,7.028,0,1,1,4.933-2.06A6.966,6.966,0,0,1,746.011,446Zm-43.988-3a4,4,0,1,1,0-8,3.914,3.914,0,0,1,2.81,1.194A4.045,4.045,0,0,1,706,439.04,3.973,3.973,0,0,1,702.022,443Zm-43.051-1A3,3,0,1,1,662,439.013,3.019,3.019,0,0,1,658.972,442ZM616,441a2,2,0,1,1,2-1.99A2,2,0,0,1,616,441Zm-346.493-1a.5.5,0,0,1-.508-.483.514.514,0,0,1,.508-.517.547.547,0,0,1,.492.517A.528.528,0,0,1,269.508,440Zm-129.991,0a.507.507,0,0,1-.517-.483.525.525,0,0,1,.517-.517.5.5,0,0,1,.483.517A.478.478,0,0,1,139.517,440Zm-43.011,0a.493.493,0,0,1-.506-.488.544.544,0,0,1,.506-.512.517.517,0,0,1,.494.512A.465.465,0,0,1,96.506,440Zm-42.5,0a1,1,0,1,1,0-2,1,1,0,0,1,0,2ZM8.984,440A1,1,0,1,1,10,439.006,1,1,0,0,1,8.984,440Zm174.011-.768a.25.25,0,0,1-.233-.219.264.264,0,0,1,.233-.246.255.255,0,0,1,.245.246A.243.243,0,0,1,182.994,439.232ZM1264.5,412a15.468,15.468,0,0,1-14.278-21.493,15.675,15.675,0,0,1,8.255-8.279,15.414,15.414,0,0,1,16.982,3.341,15.556,15.556,0,0,1,3.322,4.939A15.472,15.472,0,0,1,1264.5,412Zm-42.978,0a15.448,15.448,0,1,1,10.95-4.521A15.454,15.454,0,0,1,1221.522,412Zm-86.022-2a15.955,15.955,0,0,1-10.967-4.251,13.846,13.846,0,0,1,0-20.492A15.941,15.941,0,0,1,1135.5,381c8.547,0,15.5,6.51,15.5,14.512S1144.047,410,1135.5,410Zm-44.035,0a14.484,14.484,0,1,1,10.292-4.241A14.485,14.485,0,0,1,1091.465,410Zm-43.454,0a13.955,13.955,0,1,1,9.9-4.088A14.007,14.007,0,0,1,1048.011,410Zm-42.99-1a12.961,12.961,0,1,1,9.181-3.795A12.966,12.966,0,0,1,1005.021,409Zm303.466-1a12.5,12.5,0,0,1,0-25,12.5,12.5,0,1,1,0,25ZM1177.5,408a12.5,12.5,0,1,1,12.5-12.459A12.474,12.474,0,0,1,1177.5,408ZM961.94,407A11,11,0,1,1,973,396.018,10.973,10.973,0,0,1,961.94,407Zm-43.929,0a11,11,0,1,1,0-22,11,11,0,0,1,0,22Zm-42.547-1a10.5,10.5,0,1,1,7.456-3.07A10.485,10.485,0,0,1,875.464,406Zm-43.475,0a9.984,9.984,0,1,1,7.1-2.932A9.922,9.922,0,0,1,831.989,406Zm519.465-1a9.455,9.455,0,0,1-9.454-9.49,9.486,9.486,0,0,1,2.755-6.725,9.364,9.364,0,0,1,6.7-2.785,9.5,9.5,0,1,1,0,19Zm-562.466,0a8.982,8.982,0,1,1,6.4-2.645A8.92,8.92,0,0,1,788.988,405Zm605.489-2a7.4,7.4,0,0,1-5.292-2.223,7.491,7.491,0,1,1,5.292,2.223Zm-648.5,0A7,7,0,1,1,753,396.018,6.987,6.987,0,0,1,745.977,403ZM96.006,402a6.008,6.008,0,1,1,5.994-5.99A6,6,0,0,1,96.006,402Zm606.506-1A5.5,5.5,0,1,1,708,395.512,5.507,5.507,0,0,1,702.512,401Zm-43.038-1a3.5,3.5,0,1,1,3.526-3.49,3.452,3.452,0,0,1-1.029,2.451A3.509,3.509,0,0,1,659.474,400ZM573,400a4.006,4.006,0,1,1,4-3.99A4,4,0,0,1,573,400ZM54.022,400a4,4,0,1,1,0-8,3.943,3.943,0,0,1,2.811,1.163A4.009,4.009,0,0,1,54.022,400ZM8.984,400A4,4,0,1,1,13,396.01,3.991,3.991,0,0,1,8.984,400Zm520-1a3,3,0,1,1,2.135-5.118A3,3,0,0,1,528.988,399Zm-215.5,0A2.482,2.482,0,0,1,311,396.528,2.511,2.511,0,0,1,313.487,394,2.554,2.554,0,0,1,316,396.528,2.526,2.526,0,0,1,313.487,399ZM616,398a1.992,1.992,0,0,1-2-1.979,2,2,0,1,1,4,0A1.992,1.992,0,0,1,616,398Zm-259.966,0A2,2,0,1,1,358,396.028,1.971,1.971,0,0,1,356.035,398Zm129.48-1a.462.462,0,0,1-.515-.456.5.5,0,1,1,1,0A.456.456,0,0,1,485.515,397Zm-216.5,0a1,1,0,1,1,.985-.979A.975.975,0,0,1,269.014,397ZM139.5,397a.514.514,0,0,1-.5-.5.5.5,0,0,1,1,0A.514.514,0,0,1,139.5,397Zm1081.534-30a13.968,13.968,0,1,1,9.887-4.1A13.957,13.957,0,0,1,1221.034,367Zm-86,0a14,14,0,1,1,0-28,14,14,0,0,1,0,28Zm-43.058,0a13.974,13.974,0,1,1,9.933-4.1A13.88,13.88,0,0,1,1091.976,367Zm172.524-1a13.477,13.477,0,1,1,9.552-3.947A13.42,13.42,0,0,1,1264.5,366Zm-215.988,0a13.466,13.466,0,1,1,9.549-3.949A13.516,13.516,0,0,1,1048.512,366ZM1178,365a11.974,11.974,0,1,1,8.5-3.515A12.011,12.011,0,0,1,1178,365Zm130.5-1a11.488,11.488,0,1,1,8.138-3.366A11.51,11.51,0,0,1,1308.5,364Zm-303.465,0A11,11,0,1,1,1016,353.011,11.024,11.024,0,0,1,1005.034,364Zm-87.023,0A11,11,0,1,1,929,353,10.946,10.946,0,0,1,918.011,364Zm43.943-1A9.97,9.97,0,0,1,952,353.011,10,10,0,1,1,961.953,363Zm-86.989,0a10,10,0,0,1,0-20,10,10,0,1,1,0,20Zm476.047-1a8.98,8.98,0,1,1,6.365-2.637A8.961,8.961,0,0,1,1351.012,362Zm-519.546,0a9.507,9.507,0,0,1-6.695-16.216A9.385,9.385,0,0,1,831.466,343a9.5,9.5,0,1,1,0,19Zm-647.959-1A8.5,8.5,0,1,1,192,352.5,8.511,8.511,0,0,1,183.506,361Zm-44.012,0A8.5,8.5,0,1,1,148,352.5,8.5,8.5,0,0,1,139.495,361Zm-43.489,0A8,8,0,1,1,104,353,8.01,8.01,0,0,1,96.006,361Zm1298.47-1a7.5,7.5,0,1,1,5.333-2.2A7.5,7.5,0,0,1,1394.475,360Zm-605.511,0A6.955,6.955,0,0,1,782,353.011a7,7,0,0,1,2.028-4.954A6.894,6.894,0,0,1,788.964,346,7.019,7.019,0,0,1,796,353.011a6.925,6.925,0,0,1-2.055,4.944A7.014,7.014,0,0,1,788.964,360Zm-130.48,0a7.5,7.5,0,1,1,5.315-2.194A7.5,7.5,0,0,1,658.484,360ZM615,360a7,7,0,1,1,7-6.995A7.006,7.006,0,0,1,615,360Zm130.51-1a6.5,6.5,0,1,1,0-13,6.5,6.5,0,1,1,0,13ZM53.494,359A6.5,6.5,0,1,1,60,352.5,6.449,6.449,0,0,1,53.494,359ZM9.5,359a6.485,6.485,0,1,1,4.605-1.9A6.509,6.509,0,0,1,9.5,359Zm693.028-1A4.5,4.5,0,1,1,707,353.51,4.514,4.514,0,0,1,702.528,358Zm-130.023,0A4.5,4.5,0,1,1,577,353.511,4.51,4.51,0,0,1,572.505,358ZM398.5,358a5.5,5.5,0,1,1,5.5-5.482A5.472,5.472,0,0,1,398.5,358Zm-42.472-1A4,4,0,1,1,360,353,4.019,4.019,0,0,1,356.026,357Zm-42.537,0A3.471,3.471,0,0,1,310,353.51a3.506,3.506,0,0,1,1.011-2.481A3.456,3.456,0,0,1,313.489,350a3.5,3.5,0,1,1,0,7Zm214.99-1a2.448,2.448,0,0,1-1.752-.741A2.5,2.5,0,1,1,531,353.5,2.544,2.544,0,0,1,528.479,356Zm-85.472-1a2,2,0,1,1,0-4,2,2,0,0,1,0,4Zm-173.491,0A1.5,1.5,0,1,1,271,353.508,1.49,1.49,0,0,1,269.516,355ZM485.5,354a.5.5,0,0,1-.5-.495.5.5,0,0,1,.5-.5.51.51,0,0,1,.5.5A.517.517,0,0,1,485.5,354Zm-259.51,0a1,1,0,0,1,0-2,1,1,0,1,1,0,2Zm994.5-32A12.5,12.5,0,1,1,1233,309.505,12.4,12.4,0,0,1,1220.488,322ZM1135,322a12.985,12.985,0,1,1,9.2-3.808A12.918,12.918,0,0,1,1135,322Zm130-1a11.957,11.957,0,1,1,8.5-3.507A11.932,11.932,0,0,1,1265,321Zm43.487-1A10.5,10.5,0,1,1,1319,309.512,10.5,10.5,0,0,1,1308.488,320Zm-130.51,0A10.995,10.995,0,1,1,1189,309.006,11.021,11.021,0,0,1,1177.978,320Zm-994.483,0a10.492,10.492,0,1,1,7.431-3.071A10.43,10.43,0,0,1,183.495,320ZM139.5,320a10.489,10.489,0,1,1,7.427-3.071A10.437,10.437,0,0,1,139.5,320Zm951.963-1a9.509,9.509,0,0,1-6.691-16.22,9.384,9.384,0,0,1,6.691-2.78,9.5,9.5,0,1,1,0,19Zm-43.44,0a10,10,0,1,1,9.977-9.987A9.974,9.974,0,0,1,1048.023,319Zm-43,0a10,10,0,1,1,0-20,10,10,0,0,1,0,20Zm-42.57,0a9.5,9.5,0,1,1,6.768-2.786A9.481,9.481,0,0,1,962.452,319Zm-44.44,0a9.977,9.977,0,1,1,7.07-2.926A9.958,9.958,0,0,1,918.012,319Zm-648.476,0A9.5,9.5,0,1,1,279,309.512,9.492,9.492,0,0,1,269.536,319Zm-43.558,0A10,10,0,1,1,236,309,10,10,0,0,1,225.977,319ZM96,319a9.981,9.981,0,1,1,7.08-2.926A9.939,9.939,0,0,1,96,319Zm649.477-1a8.5,8.5,0,0,1,0-17,8.5,8.5,0,1,1,0,17Zm-42.447,0a9,9,0,1,1,8.97-8.982A9.016,9.016,0,0,1,703.03,318Zm647.947-1a8,8,0,0,1,0-16,8,8,0,1,1,0,16Zm-691.994,0A8,8,0,1,1,667,309.012,7.994,7.994,0,0,1,658.983,317ZM53.012,317a8,8,0,1,1,0-16,8,8,0,0,1,0,16Zm-43.03,0A8,8,0,1,1,18,309.012,7.994,7.994,0,0,1,9.982,317Zm1384.493-1a6.473,6.473,0,0,1-6.475-6.488,6.5,6.5,0,0,1,1.885-4.6,6.413,6.413,0,0,1,4.59-1.91,6.5,6.5,0,1,1,0,13Zm-519.512,0a6.995,6.995,0,1,1,4.989-2.049A6.984,6.984,0,0,1,874.963,316Zm-42.949,0A7,7,0,1,1,839,309.012,7.009,7.009,0,0,1,832.014,316Zm-43.576,0a6.5,6.5,0,0,1,0-13,6.541,6.541,0,0,1,4.656,1.912,6.483,6.483,0,0,1,0,9.183A6.554,6.554,0,0,1,788.438,316Zm-344.93,0A6.5,6.5,0,1,1,450,309.513,6.5,6.5,0,0,1,443.507,316Zm171.986-1A5.5,5.5,0,1,1,621,309.506,5.5,5.5,0,0,1,615.494,315ZM486,315a6.022,6.022,0,1,1,4.233-1.76A5.961,5.961,0,0,1,486,315Zm-86.995,0a5.987,5.987,0,1,1,4.249-1.761A5.966,5.966,0,0,1,399.005,315Zm-43.471,0a5.521,5.521,0,0,1-3.925-1.608,5.5,5.5,0,0,1,0-7.778,5.506,5.506,0,0,1,7.794,7.778A5.417,5.417,0,0,1,355.534,315Zm217.453-2a4,4,0,0,1,0-8,4,4,0,1,1,0,8Zm-44,0A4,4,0,1,1,533,309.006,4,4,0,0,1,528.988,313Zm-215.982,0A4.006,4.006,0,1,1,317,309,4.008,4.008,0,0,1,313.006,313Zm-86.494-35a11.477,11.477,0,1,1,8.133-3.368A11.517,11.517,0,0,1,226.511,278Zm-43.517,0a11.993,11.993,0,1,1,8.492-3.511A11.918,11.918,0,0,1,182.994,278Zm-44,0A12,12,0,1,1,151,266.011,11.917,11.917,0,0,1,138.994,278Zm-42.483,0A11.506,11.506,0,1,1,108,266.5,11.517,11.517,0,0,1,96.512,278Zm1168.977-1A10.5,10.5,0,1,1,1276,266.511,10.5,10.5,0,0,1,1265.488,277Zm-44.465,0a11,11,0,1,1,0-22,11,11,0,0,1,0,22Zm-908.035,0A11,11,0,1,1,324,266.01,11,11,0,0,1,312.988,277Zm-43.464,0A10.5,10.5,0,1,1,280,266.511,10.473,10.473,0,0,1,269.524,277Zm86.511-1A10,10,0,1,1,366,266.01,9.992,9.992,0,0,1,356.035,276Zm951.953-1a9,9,0,1,1,9.012-9A9,9,0,0,1,1307.988,275Zm-216.022,0a8.518,8.518,0,0,1,0-17,7.765,7.765,0,0,1,5.7,2.489,8.9,8.9,0,0,1,0,12.017A7.765,7.765,0,0,1,1091.966,275Zm-43.443,0a8.5,8.5,0,1,1,8.476-8.507A8.475,8.475,0,0,1,1048.523,275Zm-43.025,0a8.5,8.5,0,1,1,8.5-8.507A8.512,8.512,0,0,1,1005.5,275Zm-259.487,0A9,9,0,1,1,755,266,9.013,9.013,0,0,1,746.011,275Zm-174.005,0A9,9,0,1,1,581,266,8.951,8.951,0,0,1,572.006,275Zm-43.018,0a9,9,0,0,1,0-18,9,9,0,1,1,0,18ZM53.024,275a9,9,0,1,1,0-18,9,9,0,0,1,0,18ZM9.965,275a9.011,9.011,0,0,1-6.343-15.365A8.888,8.888,0,0,1,9.965,257a9,9,0,1,1,0,18Zm779-1a7.985,7.985,0,1,1,5.7-2.336A7.979,7.979,0,0,1,788.964,274Zm-345.44,0A7.5,7.5,0,1,1,451,266.5,7.519,7.519,0,0,1,443.524,274Zm907.465-1a7,7,0,0,1,0-14,7,7,0,1,1,0,14Zm-215.978,0a7.026,7.026,0,1,1,4.925-2.052A6.973,6.973,0,0,1,1135.012,273Zm-303.5,0a6.5,6.5,0,1,1,0-13,6.5,6.5,0,1,1,0,13Zm-128.507,0a7.02,7.02,0,1,1,4.934-2.052A6.966,6.966,0,0,1,703.006,273Zm-44.016,0a6.992,6.992,0,1,1,4.966-2.052A7,7,0,0,1,658.99,273ZM615,273a6.983,6.983,0,1,1,4.952-2.043A7,7,0,0,1,615,273Zm-129,0A7,7,0,1,1,493,266,6.953,6.953,0,0,1,486,273Zm-86.992,0A7,7,0,1,1,406,266.017,6.973,6.973,0,0,1,399.006,273Zm995.494-1a5.5,5.5,0,0,1,0-11,5.5,5.5,0,1,1,0,11Zm-432.047,0A5.478,5.478,0,1,1,968,266.5a5.424,5.424,0,0,1-1.641,3.887A5.54,5.54,0,0,1,962.453,272ZM918,272a5.978,5.978,0,1,1,4.253-1.753A5.966,5.966,0,0,1,918,272Zm-43.035,0A6,6,0,0,1,869,266.01a5.982,5.982,0,0,1,1.763-4.249,5.9,5.9,0,0,1,4.2-1.761A6.016,6.016,0,0,1,881,266.01a5.93,5.93,0,0,1-1.763,4.236A6.02,6.02,0,0,1,874.965,272Zm303.513-2a4.516,4.516,0,0,1-3.175-7.69,4.444,4.444,0,0,1,3.175-1.31,4.516,4.516,0,0,1,4.521,4.5,4.54,4.54,0,0,1-4.521,4.5ZM183.495,237a13.483,13.483,0,1,1,9.556-3.949A13.408,13.408,0,0,1,183.495,237ZM226,236a12.981,12.981,0,1,1,9.2-3.8A12.919,12.919,0,0,1,226,236Zm-87,0a12.981,12.981,0,1,1,9.2-3.807A12.914,12.914,0,0,1,139,236Zm-42.989-1a11.971,11.971,0,1,1,8.484-3.508A12.014,12.014,0,0,1,96.011,235Zm259.517-1A10.5,10.5,0,1,1,366,223.49,10.531,10.531,0,0,1,355.528,234Zm-85.511,0A11,11,0,1,1,281,222.994,10.948,10.948,0,0,1,270.017,234Zm388.454-1a9.5,9.5,0,1,1,6.745-2.784A9.494,9.494,0,0,1,658.472,233ZM615.5,233a9.5,9.5,0,1,1,9.5-9.494A9.509,9.509,0,0,1,615.5,233Zm-42.99,0a9.522,9.522,0,0,1-9.51-9.512,9.5,9.5,0,1,1,19,0A9.512,9.512,0,0,1,572.511,233Zm-43.029,0a9.5,9.5,0,1,1,6.732-16.222A9.411,9.411,0,0,1,539,223.488,9.526,9.526,0,0,1,529.482,233Zm-130.465,0a10,10,0,1,1,0-20,10,10,0,0,1,0,20Zm-86.028,0a10,10,0,1,1,7.081-2.929A9.914,9.914,0,0,1,312.988,233ZM53.523,233A9.525,9.525,0,0,1,44,223.494,9.5,9.5,0,1,1,53.523,233ZM9.465,233a9.51,9.51,0,0,1-6.687-16.228A9.4,9.4,0,0,1,9.465,214a9.5,9.5,0,1,1,0,19Zm433.548-1A9,9,0,1,1,452,223,8.963,8.963,0,0,1,443.013,232Zm865.473-1a7.5,7.5,0,1,1,7.513-7.512A7.508,7.508,0,0,1,1308.487,231Zm-217.047,0a7.526,7.526,0,1,1,5.343-2.191A7.482,7.482,0,0,1,1091.44,231Zm-42.928,0a7.5,7.5,0,1,1,7.488-7.512A7.462,7.462,0,0,1,1048.512,231ZM703.03,231A8,8,0,1,1,711,223,8.024,8.024,0,0,1,703.03,231Zm-216.536,0A7.5,7.5,0,1,1,494,223.488,7.518,7.518,0,0,1,486.494,231Zm648.006-1a6.483,6.483,0,1,1,4.6-1.9A6.5,6.5,0,0,1,1134.5,230Zm-302.987,0a6.5,6.5,0,1,1,0-13,6.5,6.5,0,0,1,0,13Zm-85.5,0a6.986,6.986,0,1,1,4.953-2.056A6.965,6.965,0,0,1,746.011,230Zm604.965-1a5.993,5.993,0,0,1-4.215-10.237,5.919,5.919,0,0,1,4.215-1.763,6,6,0,1,1,0,12Zm-85.486,0a5.229,5.229,0,0,1-3.87-1.759,6.357,6.357,0,0,1,0-8.477,5.227,5.227,0,0,1,3.87-1.764,6.022,6.022,0,0,1,0,12ZM1395,227a3.97,3.97,0,1,1,2.848-1.173A4,4,0,0,1,1395,227Zm-217.02,0a4,4,0,1,1,4.02-3.994A3.992,3.992,0,0,1,1177.979,227ZM1004.5,227a4.472,4.472,0,1,1,3.2-1.316A4.473,4.473,0,0,1,1004.5,227Zm-43.059,0a4.5,4.5,0,0,1-3.131-7.678A4.381,4.381,0,0,1,961.441,218a4.5,4.5,0,1,1,0,9Zm-85.975,0A4.5,4.5,0,1,1,880,222.5,4.488,4.488,0,0,1,875.466,227Zm-86.988,0a4.5,4.5,0,0,1,0-9,4.5,4.5,0,1,1,0,9Zm433.043-1a3.512,3.512,0,0,1-3.522-3.495,3.515,3.515,0,1,1,3.522,3.495ZM919.01,226a3,3,0,1,1,0-6,3,3,0,0,1,0,6Zm-736.5-32a15.961,15.961,0,0,1-10.965-4.248,13.845,13.845,0,0,1,0-20.505,16.274,16.274,0,0,1,21.928,0,13.866,13.866,0,0,1,0,20.505A15.94,15.94,0,0,1,182.506,194ZM139.5,193a13.5,13.5,0,1,1,9.545-3.953A13.41,13.41,0,0,1,139.5,193Zm-42.995-1A12.5,12.5,0,1,1,109,179.483,12.525,12.525,0,0,1,96.505,192ZM312.5,191a11.505,11.505,0,1,1,8.131-3.37A11.419,11.419,0,0,1,312.5,191Zm-42.982,0a11.5,11.5,0,1,1,0-23,11.5,11.5,0,0,1,0,23Zm388.96-1a10.5,10.5,0,1,1,7.445-3.074A10.4,10.4,0,0,1,658.478,190Zm-259.96,0a10.483,10.483,0,1,1,7.416-3.074A10.455,10.455,0,0,1,398.517,190Zm-42.489,0A11,11,0,1,1,367,178.983,10.962,10.962,0,0,1,356.028,190Zm-130.04,0a10.99,10.99,0,1,1,7.793-3.219A11.012,11.012,0,0,1,225.988,190ZM615,189a9.988,9.988,0,1,1,7.076-2.928A9.934,9.934,0,0,1,615,189Zm-42.5,0a9.5,9.5,0,1,1,9.5-9.511A9.439,9.439,0,0,1,572.5,189Zm-43.027,0a9.5,9.5,0,1,1,6.744-2.784A9.505,9.505,0,0,1,529.477,189Zm-85.971,0a9.487,9.487,0,1,1,6.717-2.781A9.448,9.448,0,0,1,443.507,189ZM53.024,189A10,10,0,1,1,63,178.977,10.035,10.035,0,0,1,53.024,189ZM9.983,189a10.018,10.018,0,1,1,7.084-2.935A10.015,10.015,0,0,1,9.983,189Zm692.547-1a8.479,8.479,0,1,1,5.989-2.485A8.4,8.4,0,0,1,702.53,188Zm42.945-1a7.408,7.408,0,0,1-5.308-2.2,7.568,7.568,0,0,1,0-10.6,7.419,7.419,0,0,1,5.308-2.2,7.5,7.5,0,1,1,0,15Zm-259.458,0a7.981,7.981,0,1,1,5.647-2.34A7.973,7.973,0,0,1,486.017,187Zm648.483-2a5.5,5.5,0,1,1,3.888-1.608A5.463,5.463,0,0,1,1134.5,185ZM788.94,185a5.875,5.875,0,0,1-4.2-1.749,6.017,6.017,0,1,1,4.2,1.749Zm302.017-1a4,4,0,0,1,0-8,4.048,4.048,0,0,1,2.867,1.167,3.933,3.933,0,0,1,1.177,2.816,3.981,3.981,0,0,1-1.177,2.844A4.035,4.035,0,0,1,1090.957,184Zm-42.934,0a4,4,0,1,1,3.977-4.016A4,4,0,0,1,1048.023,184ZM831.99,184A4,4,0,1,1,836,179.99,4,4,0,0,1,831.99,184Zm562.974-1a2.925,2.925,0,0,1-2.1-.877,3.021,3.021,0,0,1-.861-2.133,2.98,2.98,0,0,1,2.964-2.989,3.038,3.038,0,0,1,2.157.879,2.954,2.954,0,0,1,.879,2.11A2.991,2.991,0,0,1,1394.964,183Zm-43.953,0a3.016,3.016,0,0,1-3.011-3.015,2.948,2.948,0,0,1,.89-2.109,3,3,0,0,1,2.121-.876,3,3,0,0,1,0,6Zm-129.99,0a3,3,0,1,1,0-6,3,3,0,0,1,0,6Zm-42.542,0a3.438,3.438,0,0,1-2.469-1.031,3.537,3.537,0,0,1,0-4.948,3.452,3.452,0,0,1,2.469-1.02,3.5,3.5,0,1,1,0,7Zm-302.514,0a3,3,0,0,1-2.09-5.12,2.931,2.931,0,0,1,2.09-.879A3.016,3.016,0,0,1,879,179.989a2.982,2.982,0,0,1-.884,2.133A3.032,3.032,0,0,1,875.965,183Zm388.535-1a2.525,2.525,0,0,1-2.5-2.515,2.526,2.526,0,0,1,2.5-2.485,2.5,2.5,0,1,1,0,5Zm-259.978,0a2.5,2.5,0,1,1,0-5,2.483,2.483,0,0,1,2.478,2.483,2.526,2.526,0,0,1-.718,1.777A2.442,2.442,0,0,1,1004.522,182Zm302.953-1a1.5,1.5,0,1,1,1.525-1.511A1.478,1.478,0,0,1,1307.475,181ZM919,181a1,1,0,1,1,1-1A.991.991,0,0,1,919,181Zm-735.51-31a13.506,13.506,0,1,1,9.553-3.954A13.394,13.394,0,0,1,183.489,150Zm42.493-1a12.986,12.986,0,1,1,9.217-3.806A12.888,12.888,0,0,1,225.983,149ZM96.506,149a12.483,12.483,0,1,1,8.841-3.66A12.426,12.426,0,0,1,96.506,149ZM312.5,148a11.506,11.506,0,1,1,8.133-3.373A11.418,11.418,0,0,1,312.5,148Zm-173.005,0a11.5,11.5,0,1,1,8.143-3.373A11.41,11.41,0,0,1,139.495,148Zm130.523-1A11,11,0,1,1,281,135.988,10.947,10.947,0,0,1,270.017,147ZM572.5,146a9.5,9.5,0,1,1,9.5-9.506A9.44,9.44,0,0,1,572.5,146Zm-43.023,0a9.509,9.509,0,1,1,6.732-2.783A9.508,9.508,0,0,1,529.482,146ZM53.024,146A10,10,0,1,1,63,135.988,9.969,9.969,0,0,1,53.024,146ZM9.965,146A9.976,9.976,0,0,1,0,135.988,10,10,0,1,1,9.965,146Zm692.565-1a8.5,8.5,0,1,1,8.47-8.523A8.479,8.479,0,0,1,702.53,145Zm-43.547,0a8.517,8.517,0,0,1,0-17,7.75,7.75,0,0,1,5.679,2.482,8.9,8.9,0,0,1,0,12.026A7.735,7.735,0,0,1,658.984,145Zm-215.458,0a8.488,8.488,0,1,1,5.989-2.487A8.4,8.4,0,0,1,443.525,145Zm301.985-1a7.491,7.491,0,1,1,5.293-2.191A7.469,7.469,0,0,1,745.51,144Zm-259,0a7.5,7.5,0,1,1,0-15,7.5,7.5,0,0,1,0,15Zm-87.507,0A8,8,0,1,1,407,135.994,8.015,8.015,0,0,1,399.005,144Zm216-1a7,7,0,1,1,7-7.012A7.015,7.015,0,0,1,615,143Zm-258.973,0A7,7,0,1,1,363,135.988,6.99,6.99,0,0,1,356.028,143Zm432.912-1a6,6,0,1,1,6.06-6.012A5.983,5.983,0,0,1,788.94,142Zm389.038-2a3,3,0,1,1,2.141-.876A3,3,0,0,1,1177.978,140Zm-42.956,0a3.013,3.013,0,0,1-2.144-.878A2.975,2.975,0,0,1,1132,137a3.014,3.014,0,0,1,3.021-3,2.944,2.944,0,0,1,2.1.885,2.995,2.995,0,0,1-2.1,5.115Zm-44.056,0a3,3,0,0,1,0-6,3.04,3.04,0,0,1,2.156.875,2.943,2.943,0,0,1,.878,2.106,3.009,3.009,0,0,1-3.035,3.019Zm173.5-1a2.459,2.459,0,0,1-2.464-2.506,2.5,2.5,0,0,1,.715-1.763,2.433,2.433,0,0,1,1.749-.731,2.5,2.5,0,1,1,0,5Zm-42.943,0a2.515,2.515,0,0,1-1.769-.731,2.472,2.472,0,0,1-.752-1.774,2.542,2.542,0,0,1,2.521-2.495,2.507,2.507,0,0,1,1.756,4.269A2.452,2.452,0,0,1,1221.521,139Zm173.451-1a.96.96,0,0,1-.971-1.012.947.947,0,0,1,.971-.987,1,1,0,0,1,1.029.987A1.01,1.01,0,0,1,1394.971,138Zm-44,0a.994.994,0,0,1-.973-1.012.981.981,0,0,1,.973-.987,1.048,1.048,0,0,1,1.027.987A1.06,1.06,0,0,1,1350.973,138Zm-42.991,0c-.56,0-.982-.645-.982-1.5s.431-1.5.982-1.5c.571,0,1.018.659,1.018,1.5S1308.562,138,1307.982,138ZM182.994,105A12,12,0,1,1,195,93.012,11.921,11.921,0,0,1,182.994,105Zm-44,0a11.992,11.992,0,1,1,8.49-3.508A11.921,11.921,0,0,1,138.994,105Zm87.5-1a11.492,11.492,0,1,1,8.141-3.368A11.507,11.507,0,0,1,226.494,104ZM96.512,104a11.486,11.486,0,1,1,8.128-3.368A11.516,11.516,0,0,1,96.512,104Zm606.513-3A8,8,0,1,1,711,92.993,8.025,8.025,0,0,1,703.024,101Zm-44.059,0a8,8,0,1,1,5.694-2.346A7.989,7.989,0,0,1,658.966,101Zm-605.96,0A8,8,0,1,1,61,93.005,7.956,7.956,0,0,1,53.006,101ZM9.983,101A8,8,0,1,1,18,93.005,8,8,0,0,1,9.983,101ZM486,100a7,7,0,1,1,7-7A6.953,6.953,0,0,1,486,100Zm-42.474,0A7.5,7.5,0,1,1,451,92.506,7.492,7.492,0,0,1,443.524,100ZM399,100a7,7,0,1,1,7-7.012A6.954,6.954,0,0,1,399,100Zm216.489-1A6.5,6.5,0,1,1,622,92.493,6.508,6.508,0,0,1,615.494,99ZM355.5,99a6.531,6.531,0,1,1,4.579-1.9A6.454,6.454,0,0,1,355.5,99Zm-85.993,0A6.506,6.506,0,1,1,276,92.493,6.462,6.462,0,0,1,269.506,99Zm302.988-1A5.49,5.49,0,1,1,578,92.507,5.5,5.5,0,0,1,572.494,98ZM312.505,98a5.492,5.492,0,1,1,3.89-1.613A5.47,5.47,0,0,1,312.505,98Zm216.483-1a4,4,0,1,1,2.843-6.837A3.955,3.955,0,0,1,533,92.988,4.016,4.016,0,0,1,528.988,97Zm649.523-1a2.483,2.483,0,1,1,1.76-.726A2.472,2.472,0,0,1,1178.511,96Zm86.478-1a2,2,0,1,1,2.011-2A1.995,1.995,0,0,1,1264.99,95Zm-44,0a2,2,0,1,1,2.01-2A2,2,0,0,1,1220.99,95Zm173.972-1a1,1,0,0,1-.961-1.007.979.979,0,0,1,.961-.993,1,1,0,1,1,0,2Zm-43.989,0a.977.977,0,0,1-.973-1,.987.987,0,0,1,.973-1A1.054,1.054,0,0,1,1352,93,1.041,1.041,0,0,1,1350.973,94Zm-42.993,0a1,1,0,0,1,0-2,1,1,0,1,1,0,2ZM745.013,94A1.033,1.033,0,0,1,744,93a1.046,1.046,0,0,1,1.013-1A1.007,1.007,0,0,1,746,93,1,1,0,0,1,745.013,94Zm390-.755a.284.284,0,0,1-.255-.246.263.263,0,0,1,.255-.243.245.245,0,0,1,.234.243A.264.264,0,0,1,1135.011,93.245Zm-44,0a.285.285,0,0,1-.257-.246.264.264,0,0,1,.257-.243c.161,0,.233.075.233.243A.218.218,0,0,1,1091.012,93.245Zm-43,0a.264.264,0,0,1-.255-.246.244.244,0,0,1,.489,0A.264.264,0,0,1,1048.01,93.245Zm-172.045-.129a.1.1,0,0,1-.117-.117.117.117,0,0,1,.117-.114c.116,0,.185.058.185.114C876.151,93.077,876.09,93.116,875.966,93.116ZM139.5,60a10.488,10.488,0,1,1,7.427-3.071A10.436,10.436,0,0,1,139.5,60ZM95.989,60a10,10,0,1,1,7.078-2.925A9.92,9.92,0,0,1,95.989,60ZM53.006,58A8,8,0,1,1,61,49.994,7.954,7.954,0,0,1,53.006,58ZM9.983,58a8,8,0,1,1,5.672-2.343A8,8,0,0,1,9.983,58Zm605.511-2a6.5,6.5,0,1,1,4.6-1.9A6.5,6.5,0,0,1,615.494,56ZM398.5,56a6.506,6.506,0,1,1,6.5-6.5A6.464,6.464,0,0,1,398.5,56Zm174-1a5.482,5.482,0,1,1,3.889-1.605A5.474,5.474,0,0,1,572.5,55Zm-216.97,0A5.5,5.5,0,0,1,350,49.489a5.438,5.438,0,0,1,1.609-3.878,5.5,5.5,0,0,1,7.794,7.776A5.409,5.409,0,0,1,355.534,55ZM313.5,54a4.481,4.481,0,1,1,3.194-1.318A4.466,4.466,0,0,1,313.5,54Zm214.975-1a3.444,3.444,0,0,1-2.46-1.018A3.513,3.513,0,1,1,528.474,53ZM183.006,53a3.986,3.986,0,1,1,2.825-1.166A3.984,3.984,0,0,1,183.006,53Zm86.529-1a2.529,2.529,0,0,1-1.784-.737A2.478,2.478,0,0,1,267,49.489a2.446,2.446,0,0,1,.751-1.759A2.54,2.54,0,0,1,269.535,47a2.5,2.5,0,0,1,0,5ZM1264.5,51a1.551,1.551,0,0,1-1.5-1.522A1.51,1.51,0,0,1,1264.5,48a1.491,1.491,0,0,1,1.5,1.479A1.532,1.532,0,0,1,1264.5,51ZM658.971,51a2,2,0,0,1,0-4,2,2,0,1,1,0,4ZM1395,50a1.045,1.045,0,0,1-1-1.011,1.034,1.034,0,0,1,1-.99,1.009,1.009,0,0,1,1,.99A1.019,1.019,0,0,1,1395,50Zm-44.023,0a1.008,1.008,0,0,1-.977-1.012.984.984,0,0,1,.977-.989,1,1,0,0,1,1.023.989A1.007,1.007,0,0,1,1350.977,50Zm-43,0a1.011,1.011,0,0,1-.977-1.017,1,1,0,0,1,2,0A1.021,1.021,0,0,1,1307.977,50Zm-86.447,0a.5.5,0,1,1,0-1,.5.5,0,0,1,0,1ZM1178.5,50a.5.5,0,1,1,.5-.507A.53.53,0,0,1,1178.5,50Zm-42.983,0a.5.5,0,1,1,0-1,.5.5,0,0,1,0,1Zm-43.1,0c-.251,0-.419-.207-.419-.516a.441.441,0,0,1,.419-.485.506.506,0,1,1,0,1ZM485.5,50a.5.5,0,0,1,0-1,.5.5,0,1,1,0,1Zm-260,0a.5.5,0,1,1,0-1,.481.481,0,0,1,.5.494A.487.487,0,0,1,225.5,50Zm822.51-.756a.255.255,0,0,1-.255-.256.245.245,0,0,1,.489,0A.255.255,0,0,1,1048.01,49.244Zm-42.989,0a.253.253,0,0,1-.23-.256.241.241,0,0,1,.23-.233.207.207,0,0,1,.189.233C1005.21,49.139,1005.132,49.244,1005.021,49.244Zm-43.034,0a.254.254,0,0,1-.231-.256.242.242,0,0,1,.231-.233.247.247,0,0,1,.258.233A.257.257,0,0,1,961.987,49.244Zm-86.021-.121a.112.112,0,0,1-.117-.117.128.128,0,0,1,.117-.129c.121,0,.185.075.185.129C876.151,49.077,876.078,49.123,875.966,49.123ZM53.013,14a7,7,0,1,1,0-14,7,7,0,0,1,0,14ZM10,14a7,7,0,1,1,4.958-2.056A7.009,7.009,0,0,1,10,14Zm86.506-1a6.5,6.5,0,1,1,0-13A6.491,6.491,0,0,1,103,6.511,6.486,6.486,0,0,1,96.506,13Zm431.982-3A3.472,3.472,0,0,1,525,6.511a3.507,3.507,0,0,1,1.011-2.482,3.511,3.511,0,0,1,4.966,0A3.5,3.5,0,0,1,528.488,10Zm-215,0a3.509,3.509,0,0,1-2.475-5.976A3.463,3.463,0,0,1,313.489,3a3.5,3.5,0,1,1,0,7ZM573,9a3,3,0,1,1,3-2.994A2.993,2.993,0,0,1,573,9Zm821.47-1a1.5,1.5,0,0,1,0-3,1.5,1.5,0,1,1,0,3ZM269.029,8a2,2,0,1,1,0-4,2,2,0,0,1,0,4ZM1350.981,7A1,1,0,1,1,1352,6,1.014,1.014,0,0,1,1350.981,7Zm-42.969,0A1.045,1.045,0,0,1,1307,6a1.048,1.048,0,0,1,1.012-1A1,1,0,0,1,1309,6,.981.981,0,0,1,1308.012,7Zm-43.025,0a1,1,0,0,1,0-2A.984.984,0,0,1,1266,6,1,1,0,0,1,1264.987,7Zm-43.478,0a.485.485,0,0,1-.509-.493.491.491,0,0,1,.509-.507.478.478,0,0,1,.491.507A.471.471,0,0,1,1221.509,7ZM1178.5,7a.5.5,0,0,1,0-1,.5.5,0,1,1,0,1Zm-43,0a.52.52,0,0,1-.5-.5.507.507,0,0,1,.5-.5.52.52,0,0,1,.5.5A.534.534,0,0,1,1135.5,7Zm-43.061,0a.465.465,0,0,1-.439-.5.452.452,0,0,1,.439-.5.521.521,0,0,1,.561.5A.54.54,0,0,1,1092.439,7Zm-44.923,0a.524.524,0,0,1-.517-.5.509.509,0,0,1,.517-.5.447.447,0,0,1,.483.5A.458.458,0,0,1,1047.516,7Zm-42.982,0a.481.481,0,0,1-.534-.5.47.47,0,0,1,.534-.5.448.448,0,0,1,.466.5A.459.459,0,0,1,1004.534,7ZM485.5,7a.5.5,0,0,1,0-1,.524.524,0,0,1,.5.507A.518.518,0,0,1,485.5,7ZM442.55,7a.528.528,0,0,1-.55-.5.514.514,0,0,1,.55-.5.455.455,0,0,1,.45.5A.468.468,0,0,1,442.55,7ZM225.5,7a.5.5,0,1,1,0-1,.5.5,0,0,1,0,1ZM182.492,7a.5.5,0,0,1,0-1,.508.508,0,0,1,.508.507A.5.5,0,0,1,182.492,7ZM140,7a1,1,0,0,1-1-1,1,1,0,1,1,2,0A1,1,0,0,1,140,7Zm821.986-.768a.239.239,0,0,1-.231-.222.244.244,0,0,1,.231-.243.234.234,0,1,1,0,.465ZM919,6.233a.239.239,0,0,1-.231-.222.232.232,0,1,1,.464,0A.24.24,0,0,1,919,6.233Zm-43.565,0c-.223,0-.434-.108-.434-.222,0-.143.229-.243.434-.243.333,0,.566.1.566.243C876,6.118,875.8,6.233,875.434,6.233Zm-43.42,0a.263.263,0,0,1-.257-.222.264.264,0,0,1,.257-.243.244.244,0,0,1,.231.243A.239.239,0,0,1,832.013,6.233Zm-44.071,0a.242.242,0,0,1-.186-.222.245.245,0,0,1,.186-.243c.178,0,.3.1.3.243C788.244,6.118,788.138,6.233,787.942,6.233Zm-42.931,0a.247.247,0,0,1-.256-.222.25.25,0,0,1,.256-.243.244.244,0,0,1,.233.243A.24.24,0,0,1,745.011,6.233Zm-43,0a.222.222,0,0,1-.246-.222.227.227,0,0,1,.246-.243.244.244,0,0,1,.231.243A.239.239,0,0,1,702.007,6.233Zm-43.03,0a.222.222,0,0,1-.221-.222.228.228,0,0,1,.221-.243.235.235,0,1,1,0,.465ZM616,6.233a.252.252,0,0,1-.246-.222A.254.254,0,0,1,616,5.767a.243.243,0,0,1,.243.243A.24.24,0,0,1,616,6.233Zm-217,0a.233.233,0,1,1,0-.465.254.254,0,0,1,.246.243A.252.252,0,0,1,399,6.233Zm-42.971,0c-.2,0-.266-.115-.266-.222,0-.154.1-.243.266-.243a.226.226,0,0,1,.21.243A.219.219,0,0,1,356.028,6.233Z" data-name="Fill 1"/></g></svg></svg>